<?xml version="1.0" standalone="no"?>
<!DOCTYPE svg PUBLIC "-//W3C//DTD SVG 1.0//EN" "http://www.w3.org/TR/2001/REC-SVG-20010904/DTD/svg10.dtd">
<svg xmlns="http://www.w3.org/2000/svg" xmlns:xlink="http://www.w3.org/1999/xlink" id="body_1" width="32" height="32">

<g transform="matrix(0.03125 0 0 0.03125 0 0)">
    <path transform="matrix(5.138201 0 0 5.138201 -1415.283 -1754.759)"  d="M318.849 467.998L306.355 467.998C 303.04 467.998 300.348 465.307 300.348 461.991L300.348 461.991L300.348 347.518C 300.348 344.203 303.04 341.511 306.355 341.511L306.355 341.511L318.849 341.511C 318.955 341.511 319.061 341.514 319.166 341.519C 322.851 341.524 329.298 341.529 340 341.529C 356.814 341.529 370.049 348.633 373.877 350.922C 374.561 351.361 375.439 351.362 376.123 350.922C 379.957 348.636 393.22 341.529 410 341.529L410 341.529L430.767 341.514C 430.83 341.512 430.894 341.511 430.958 341.511L430.958 341.511L443.452 341.511C 446.768 341.511 449.459 344.203 449.459 347.518L449.459 347.518L449.459 461.991C 449.459 465.306 446.768 467.998 443.452 467.998L443.452 467.998L430.958 467.998C 430.898 467.998 430.837 467.997 430.777 467.995C 430.777 467.995 413.226 468.004 403.328 468.009C 399.156 468.011 395.206 469.892 392.576 473.13C 387.64 479.205 380.071 488.522 380.071 488.522C 377.246 491.347 372.682 491.347 369.856 488.522C 369.856 488.522 362.339 479.228 357.425 473.153C 354.795 469.901 350.836 468.011 346.654 468.009C 336.703 468.004 319.031 467.995 319.031 467.995C 318.971 467.997 318.911 467.998 318.849 467.998zM375 373.04C 374.608 373.04 374.253 373.269 374.09 373.625C 371.192 379.976 362.366 399.319 362.366 399.319C 362.366 399.319 343.021 408.179 336.671 411.087C 336.315 411.251 336.087 411.606 336.087 411.998C 336.088 412.39 336.317 412.745 336.673 412.907C 343.026 415.795 362.366 424.587 362.366 424.587C 362.366 424.587 371.192 443.93 374.09 450.281C 374.253 450.637 374.608 450.866 375 450.866L375 450.866L375.037 450.865C 375.414 450.851 375.752 450.626 375.91 450.281C 378.808 443.93 387.634 424.587 387.634 424.587C 387.634 424.587 406.905 415.794 413.232 412.906C 413.588 412.744 413.817 412.389 413.817 411.998C 413.818 411.607 413.59 411.251 413.235 411.088C 406.91 408.18 387.634 399.319 387.634 399.319C 387.634 399.319 378.808 379.976 375.91 373.625C 375.752 373.28 375.414 373.055 375.037 373.041L375.037 373.041L375 373.04z" stroke="none" fill="#5864FB" fill-rule="nonzero" />
</g>
</svg>
